<?xml version="1.0" encoding="UTF-8" standalone="no"?>
<svg id="svg2" xmlns:rdf="http://www.w3.org/1999/02/22-rdf-syntax-ns#" xmlns="http://www.w3.org/2000/svg" height="1078.9" width="1882.7" version="1.0" xmlns:cc="http://creativecommons.org/ns#" xmlns:dc="http://purl.org/dc/elements/1.1/">
 <metadata id="metadata14">
  <rdf:RDF>
   <cc:Work rdf:about="">
    <dc:format>image/svg+xml</dc:format>
    <dc:type rdf:resource="http://purl.org/dc/dcmitype/StillImage"/>
   </cc:Work>
  </rdf:RDF>
 </metadata>
 <path id="rect6" d="m608.13 3.252c-3.0944 0.26144-5.9697 3.4383-7.0313 6.375-0.7443 2.0726 3.6753 3.6125 3.2813 5.7812-1.1076 6.0963-7.4585 10.86-7.4376 17.062 0.024 2.9201 4.5943 4.3482 7.5 4.5312 3.5999 0.2279 6.7728-4.084 10.313-3.4062 1.8197 0.3476 1.8182 4.0668 0.75 5.5625-1.3923 1.9586-5.6194 0.6403-6.6876 2.8125-0.8477 1.7129 1.0408 4.1766 2.75 5.0312 7.6631 3.8821 18.574 2.1807 24.25 8.625 3.3404 3.7961 0.9514 12.693-3.6874 14.688-12.972 5.6205-28.948 0.1415-42.156 5.1875-3.7712 1.4422 0.9277 9.6671-2.4375 11.875-14.447 9.5436-31.766 13.913-47.5 21.156-1.5989 0.7478-2.795 3.2399-4.5 2.8125-4.3208-1.111-7.1463-7.9034-11.5-6.9062-6.3259 1.4458-8.7093 10.173-14.625 12.844-2.8061 1.2463-7.2451-4.721-8.9688-2.1562-4.5627 6.7696-1.8625 16.642-5.6562 23.875-0.9651 1.8162-4.2658-2.7645-6-1.625-1.9232 1.2784-0.036 5.1206-1.7188 6.6875-1.6914 1.5704-4.5014 1.4601-6.8124 1.25-9.3524-0.85466-18.459-5.2922-27.813-4.4375-3.1052 0.28488-2.5322 7.3235-5.6562 7.4688-4.492 0.20655-7.1359-6.8194-11.625-6.6562-7.6564 0.27776-14.239 5.7652-21.594 7.9375-5.3849 1.6025-13.176-1.2263-16.562 3.25-2.621 3.4649 5.6718 7.8133 4.9062 12.094-0.787 4.3908-7.457 5.8703-8.9062 10.094-0.7514 2.1865 4.5312 4.0996 3.3437 6.0938-0.2621 0.43825-0.5371 0.9036-0.8125 1.3438-3.8082 6.0911-8.8927 12.179-15.594 14.438-4.4465 1.4885-9.2066-2.9391-12.75-6-2.3097-1.9987-3.6022-5.3569-5.0312-8.4375-1.494-3.2204-3.1315-6.1332-6.3125-6.4062-2.5861-0.21604-2.3857 2.9672-2.1563 6.4062 0.1828 2.7411 0.3808 5.6266-0.9062 7.25-2.45 3.0946-8.6844 0.9251-11.031 4.0938-2.2569 3.0452-2.2018 14.252-4.095 17.502l581.31 389.72h952.03c-2.8304-13.108 0.2704-34.618-7.1243-45.627-3.3581-5.0136-11.942 1.9862-17.969 1.8438-2.3361-0.0392-5.1266-0.62135-6.5937-2.4375-1.9301-2.3859 0.069-7.3125-2.5938-8.8438-6.3722-3.6326-16.764 0.78711-21.438-4.875-10.596-12.834-17.287-29.255-20.25-45.625-1.0327-5.7084 9.9009-9.0198 9.2813-14.781-0.5057-4.6835-9.9204-3.5752-11.719-7.9375-2.247-5.452 3.6064-12.283 1.1875-17.656-1.3461-2.9913-7.1334-3.4004-9.7187-1.4062-1.9835 1.5455 3.5204 4.9796 2.2812 7.1875-1.6061 2.831-5.7073 5.3096-8.8125 4.3125-8.7681-2.831-14.768-11.661-23.469-14.688-8.7284-3.0626-18.302-4.1127-27.5-3.1875-2.45 0.24963 5.4514 2.9854 5.0312 5.4062-0.3917 2.2791-4.8885 0.97818-6.4375 2.6875-1.3888 1.5455 0.542 6.4717-1.2812 5.9375-4.9632-1.428-9.4245-5.1606-12.312-9.4375-1.9622-2.9023 1.788-8.5458-1.125-10.469-4.8105-3.205-12.464 1.3612-17.281-1.8438-3.4436-2.2898-0.4113-9.0886-3.4062-11.938-2.215-2.1117-6.5701-1.5669-9.1875 0-2.5106 1.5206-0.8486 7.7317-3.7813 7.9375-5.2027 0.36323-10.979-2.5709-14.188-6.6875-4.0454-5.1885-1.8071-13.661-5.7812-18.906-3.4009-4.487-9.152-7.609-14.75-8.25-3.4791-0.40241-6.8883 2.6878-9 5.5-1.2503 1.6595-1.6858 5.1504 0.094 6.2188 3.4044 2.069 9.3023-1.8663 11.938 1.125 2.8025 3.1836 3.687 10.23 0.2187 12.688-3.4115 2.4037-7.3949-4.953-11.562-4.75-5.0019 0.24572-9.9212 2.868-13.812 6-3.6696 2.9699-4.0608 9.0567-8 11.656-4.1674 2.7776-9.7204 4.3391-14.625 3.3438-4.7687-0.95793-8.7294-4.836-11.781-8.625-1.5171-1.8838 0.9649-5.7631-0.9688-7.1875-3.7298-2.7848-9.9425-0.63441-13.5-3.625-2.6637-2.247-1.3017-6.96-2.8437-10.094-4.2659-8.6392-8.8077-17.259-14.531-25-1.8732-2.5426-4.7305-5.5291-7.875-5.2812-2.4571 0.1923-1.6283 5.4796-4 6.1562-2.564 0.74426-5.5628-0.96074-7.5-2.8125-6.3195-5.9933-19.932-12.014-16.688-20.094 0.9909-2.4678 2.7092-4.044 4.9688-5.1875 6.7791-3.4305 17.924-2.5625 24.656-6.8438 2.7456-1.7449 0.8846-7.1795 3.5625-9.0312 3.0767-2.101 8.6145 1.6526 11.125-1.125 2.8525-3.148 3.1643-8.8665 1.3125-12.688-2.0761-4.2804-10.679-3.6997-11.562-8.375-1.2499-6.6236 8.9141-12.976 6.375-19.219-2.6494-6.5168-11.387-10.869-18.406-10.406-3.8288 0.24928 2.9626 8.295 0.8437 11.5-4.2624 6.4419-10.836 11.749-18.031 14.562-2.7741 1.0826-4.8354-4.3144-7.8125-4.4688-8.864-0.46294-17.916 0.36408-26.469 2.75-6.4358 1.7948-10.905 9.5891-17.594 9.5625-3.3723-0.0142-0.4784-7.3328-2.875-9.7188-2.1615-2.1332-5.9589-1.8504-9-2-2.4002-0.10684-5.2732-0.34255-7.125 1.1875-2.0405 1.6951-2.4849 9.9433-3.0938 7.3438-2.1295-9.0273 4.5801-20.948-1.7187-27.75-4.6985-5.071-13.752 6.1454-20.312 3.9375-8.6847-2.9023-15.453-10.53-21-17.812-1.8054-2.3752 3.3714-7.8067 0.5937-8.875-5.1441-1.9978-11.029 4.307-16.344 2.8125-4.3929-1.2321-5.1246-8.2863-9.3438-10.031-4.8929-2.0298-10.771 1.0138-15.875-0.375-5.6564-1.5562-9.782-7.2842-15.562-8.2812-2.5284-0.43445-3.8036 5.2834-6.25 4.5-7.2309-2.3254-11.79-10.101-18.969-12.594-0.6491-0.22795-1.3899-0.25667-2.0938-0.15625-2.112 0.29795-4.2524 1.8532-5.4062 3.5625-2.9486 4.3588-6.9274 10.111-4.9688 15 1.9479 4.8521 11.092 2.9439 13.938 7.3438 5.9989 9.2802 4.5543 22.346 11.062 31.281 3.779 5.1923 14.548 2.239 17.5 7.9375 4.982 9.6149 3.8404 21.556 3.3438 32.375-0.078 1.7412-3.5602 2.7914-4.9063 1.6875-3.7085-3.0198-3.1356-10.954-7.7812-12.094-3.2156-0.79412-0.6807 7.75-3.625 9.2812-4.7688 2.4928-11.405-1.5683-16.125 1.0312-3.18 1.7414-1.7998 7.3517-4.1563 10.094-1.0968 1.282-3.3976 1.2129-5.0312 0.75-2.183-0.63387-3.5422-4.4222-5.7188-3.7812-3.4787 1.0266-6.2991 3.9955-8.3125 7.125-0.2137 0.33346-0.4612 0.60145-0.6562 0.9375-3.3901 5.8152-2.9069 13.509-6.8125 19-2.2292 3.1337-7.6702 2.4088-10.312 5.1875-4.5069 4.7576-4.2155 14.546-10.406 16.719-6.6599 2.3147-14.026-2.7809-20.25-6.0938-5.6154-2.9949-11.709-6.7247-14.469-12.469-3.4077-7.0915-3.1282-15.469-4.4375-23.281-0.5738-3.4231-1.3816-6.8049-3.0625-9.8125-8.9478-16.01-21.293-30.205-34.844-42.562-3.3403-3.0269-10.421 1.883-13.438-1.5-5.2437-5.8686-2.3772-16.632-7.7812-22.344-3.4258-3.6323-10.093-2.8002-14.938-1.625-4.194 1.0327-6.2707 9.0305-7.25 10.312-2.0868 2.7563-5.8519-17.396-11.656-22.531-1.9907-1.7805-6.2015 2.7711-7.9999 0.8125-3.0162-3.2833-3.1975-8.5451-3.1876-13 0-1.7983 1.4657-4.0872 3.25-4.2188 2.094-0.15194 3.8379 5.2275 5.1876 3.625 1.6523-1.9693-3.216-5.2565-1.9376-7.5 2.685-4.6935 7.3286-8.3859 12.25-10.594 2.0689-0.92588 4.8113 3.5593 6.5313 2.0625 2.9699-2.5604 0.5681-9.037 3.9375-11.031 4.2676-2.5212 10.362 2.101 14.844 0 4.6108-2.1651 8.2531-6.8559 9.9375-11.656 0.7121-2.0227-4.749-2.998-4.0937-5.0625 0.7371-2.3147 5.7865-0.69402 6.6875-2.9375 1.1217-2.7954-3.5958-6.351-1.9375-8.8438 2.1936-3.3332 8.2212-1.8917 10.906-4.8125 1.2464-1.3532-0.439-3.8924-1.625-5.2812-2.9361-3.4761-5.7463-7.1479-8.5937-10.812-5.5223-7.1072-11.275-14.027-18.938-18.406-5.4046-3.0939-12.007-4.9567-18.469-5.125-3.8773-0.10209-7.6652 0.38289-11.188 1.625-4.9178 1.7414-0.6548 10.901-3.5 15.281-1.8161 2.7848-5.8989 5.0109-9.125 4.1562-2.8632-0.74783-1.8949-6.2231-4.4374-7.7188-5.9359-3.5326-12.814-7.4041-19.688-6.6562-4.3679 0.47363-6.8146 5.8712-8.8124 9.7812-1.069 2.0958-1.1841 4.6298-1.3438 7.0625-0.1354 2.0723-0.2985 4.0677-1.3438 5.7812-1.6809 2.7456-4.9888 5.0678-8.2187 5.0312-3.8474-0.0427-10.012-1.414-10.312-5.25-0.2327-2.964 4.7518-3.7727 7.5-5.5625 1.0322-0.67257 1.7912-1.5085 1.7812-2.625-0.066-8.4255-1.7023-20.233-9.5-23.438-10.813-4.4229-24.663 11.495-34.656 5.4375-10.541-6.3886-2.7674-28.176-13.344-34.5-8.9636-5.363-19.835 9.8619-30.187 8.4375-10.942-1.5063-18.346-12.724-28.719-16.531-5.6168-2.0298-12.202 1.0444-17.969-0.59375-9.3961-2.6494-16.937-12.53-26.687-12.031-6.2797 0.3241-7.392 10.604-12.625 14.094-1.6168 1.0683-5.0263-0.1131-5.5-2-1.9765-7.8379-0.2375-19.047-1.0938-24.25-0.8582-5.2134-1.4263-4.545-3.9375-6.2188-2.5106-1.7093-6.6063-0.39675-10.25-3.2812-3.6439-2.8702-8.4068-7.968-10.75-13.281-2.3468-5.3131-3.6128-11.725-2.8125-17.594 0.5057-3.707 6.2314-5.4001 6.5312-9.125 0.3242-4.0162-1.9185-8.3354-4.9062-11.031-1.8589-1.6808-5.6467 1.4546-7.5625-0.15625-2.158-1.8197 0.4794-7.793-2.3125-8.1562-6.2668-0.819-12.483 8.2955-18.156 5.5-4.3296-2.1331 2.5691-10.586-0.1563-14.562-1.5597-2.272-6.2372 0.7407-7.7187 3.0625-1.6772 2.6245 1.0155 6.5324-0.2188 9.4062-0.5235 1.2286-2.6717 0.5906-4 0.4375-2.4963-0.2849-5.8981 0.27705-7.3438-1.7812-1.3781-1.9586 3.1699-5.849 1.0938-7.0312-6.5514-3.732-14.554-5.01-22.094-4.9062-3.8106 0.052-7.4356 2.6098-10.156 5.2812-2.4607 2.418-4.9218 5.8028-4.6875 9.25 0.1733 2.5568 3.0886 4.8538 5.625 5.2812 1.8767 0.3048 2.8057-4.5402 4.4687-3.625 2.8026 1.5455 4.8969 5.362 4.4376 8.5312-0.9901 6.8266-7.6433 12.048-8.4376 18.906-0.8831 7.6563 10.527 19.39 3.625 22.844-13.976 6.9619-32.196-6.825-46.812-1.3125-7.6819 2.8952-3.1622 17.672-9.7188 22.625-5.1693 3.9087-13.359 1.6498-19.438-0.59375-2.7028-0.9899-1.1736-6.5218-3.7187-7.875-7.5186-3.9742-21.189 0.7308-24.469-7.125-4.2018-10.064 13.675-22.107 8.3125-31.594-3.8816-6.8622-18.484 12.186-23 5.7188-5.2011-7.4462 9.139-16.669 9.0313-25.75-0.066-5.552-4.842-10.594-9.4688-13.656-2.1794-1.4423-4.9412 3.2316-7.4375 2.4375-1.6737-0.5341 0.4272-4.0638-0.9687-5.125-2.5318-1.923-7.375 0.1195-9.1876-2.5-2.0231-2.9236 3.5-9.7937 0.063-10.687-3.3403-0.8689 1.3129 8.9099-1.9063 10.156-3.6765 1.4245-6.6922-5.6946-10.625-5.3438-4.576 0.4095-7.1318 7.6242-11.719 7.3438-3.7843-0.2326-4.1664-6.9561-7.6563-8.4375-3.8075-1.6164-8.4507 1.216-12.375-0.0937-3.7327-1.2464-5.4264-7.0128-9.3437-7.1875-0.2078-0.009-0.4187-0.0174-0.625 0z" stroke="#11457e" stroke-width="6.5" fill="#fff"/>
 <path id="path3785" d="m324.01 199.22c-1.4359 0.0872-2.7301 0.58125-3.4063 1.6562-7.1158 11.363-6.2151 27.14-14.844 37.406-3.3368 3.9678-10.749 0.64173-15.563-1.2812-1.7735-0.71578 0.6098-5.8569-1.2812-5.5625-5.0382 0.78344-8.0664 7.1984-13.125 7.875-5.1344 0.68017-11.689-8.1655-14.969-4.1562-5.8332 7.1293-1.0399 18.657-4.0312 27.375-1.4993 4.3623-5.1498 7.8692-8.9688 10.469-3.4007 2.2933-8.6557 1.156-11.875 3.7188-0.6195 0.49855 0.9576 2.1461 1.4063 3.25 4.3495 10.767-19.717-20.402-34.188-25.156-4.1914-1.3746 0.1418 10.209-3.4062 12.844-2.2719 1.6773-0.5859-7.71-3.4063-7.7812-6.2829-0.15669-12.68 3.1344-17.438 7.25-4.1728 3.6074-2.6259 12.738-7.8125 14.625-3.8956 1.4244-5.2779-7.0799-9.1875-8.4688-2.8667-1.0007-5.9326 1.327-8.9062 2-2.9736 0.66236-21.92-2.9384-35.375 5.2812-6.1338 3.7462-2.7424 14.561-6.8438 20.469-1.1752 1.6808-3.7667-3.8314-5.4688-2.6562-4.7879 3.2619-6.0026 10.3-10.687 13.719-2.4608 1.7805-7.3444-1.8401-9.125 0.65625-2.2328 3.1053 1.7087 7.8269 0.4374 11.438-0.6303 1.8161-3.5284 1.5647-5.2812 2.3125-3.0055 4.0561-7.347 7.3987-9.0312 12.156-1.0826 3.0661 3.3137 7.0923 1.3124 9.6562-1.4956 1.9301-6.2624-4.8826-6.875-2.5312-1.329 5.0894-0.4253 10.624 0.2813 16.031 0.6602 5.0538 1.1321 9.9858-0.75 14.531-1.4601 3.5255-8.1036-0.13034-11.188-2.375-2.5996-1.8981-4.2816-5.6388-4.0938-8.8438 0.071-1.2096 0.8184-2.2453 1.7188-3.3125 1.8722-2.2187 4.4954-4.3167 3.5-6.625-2.3967-5.5588-11.979-5.6109-14.344-11.188-1.1858-2.7848 6.0318-2.8063 7.125-5.6562 0.7051-1.8304-1.1454-4.3815-2.9687-5.0938-4.5475-1.7449-11.447 2.122-14.531-1.6562-4.4381-5.4374 1.6896-16.284-3.7187-20.75-3.1769-2.6324-8.4577-4.3666-13.188-4.3125-3.6789 0.0427-7.0082 1.1532-8.8438 3.7812-4.0545 5.8045 10.049 12.385 8.9063 19.375-0.9152 5.5834-11.077 5.0517-13.719 10.062-1.2712 2.4144 2.4597 5.4142 4.9062 6.625 3.529 1.7344 8.7418-1.0015 11.719 1.5625 2.6602 2.3004-0.039 7.5618 2.0624 10.375 1.4424 1.943 4.0289 2.57 6.375 3.5 1.4077 0.55802 2.7736 1.2268 3.6563 2.375 2.8132 3.6465 4.7868 8.4375 4.5 13.031-0.2578 4.1059-5.2364 6.7505-6.0625 10.781-0.9295 4.5332-1.7036 10.045 1.0312 13.781 4.9813 6.8017 15.369 8.3423 20.25 15.219 1.695 2.3859-6.0337 5.9164-3.8437 7.875 4.0233 3.5611 11.33-0.0732 15.875 2.8125 2.3752 1.4992-0.2861 6.1533 1.625 8.2188 1.0256 1.1004 2.494-3.2245 3.7813-2.4375 3.5361 2.1473 4.4618 7.319 7.9374 9.5625 5.1501 3.3047 12.449 2.6331 17.125 6.5938 2.0264 1.7164-2.3303 6.9273 0.094 8.0312 2.8381 1.2784 5.2804-4.535 8.375-4.2188 3.1694 0.32406 5.2905 3.6359 7.5625 5.8438 1.136 1.111 3.037 2.5988 2.5313 4.0938-1.517 4.5158-10.242 7.7604-7.9376 11.938 3.5111 6.3494 13.999 4.8604 19.719 9.3438 2.0365 1.5954 1.293 5.0341 1.9375 7.5625 0.6446 2.5141-8.9126 8.87-14.969 20.344-1.2609 2.3895 1.4436 5.9128-0.094 8.1562-1.4564 2.101-6.3882 0.1109-7.25 2.5312-1.9762 5.5129 1.7147 12.492 0.125 17.875-0.2089 0.70894-0.455 1.3522-0.875 2-4.2471 6.5488-18.294 4.4798-20.031 12.094-1.9479 8.5284 5.5191 17.426 11.875 23.438 5.4329 5.1198 17.119 1.3633 21.062 7.7188 4.8424 7.7988-1.9952 18.807 0.875 27.531 0.8867 2.6708 6.0117-0.67007 8.4688 0.71875 1.4387 0.81549 1.5331 2.1998 2.1562 4.9062 2.3397 10.092 0.338 21.56 5.625 30.562 2.8951 4.9178 13.268 1.8938 15.594 7.125 2.7385 6.1571-3.9577 13.145-3.5625 19.875 0.3704 6.2853 1.5579 13.3 5.7813 17.969 3.3511 3.7117 10.129 1.7475 14.406 4.3125 5.1096 3.0803 10.026 7.0584 13.031 12.219 1.4695 2.5219 1.8389 5.7085 2.1563 8.8438 0.4824 4.7627 0.8169 9.5079 4.25 12.312 7.8123 6.3964 19.128 7.9069 29.219 7.9375 2.6208 0.007-3.1846-7.1984-0.6562-7.875 6.0894-1.6488 13.091 0.0349 18.625 3.0625 6.811 3.7071 10.513 11.522 16.688 16.219 1.7591 1.3518 5.1816-0.40118 6.5313 1.3438 1.382 1.7912-0.1811 4.5647-0.25 6.8438-0.066 2.2613-2.2805 5.7984 0.75 9.5625 3.529 4.3801 10.782 4.6048 14.25 9.0312 4.0659 5.1885 3.2441 13.283 7.2812 18.5 4.2462 5.4873 12.828 6.6757 16.688 12.438 3.0376 4.5329-0.4832 11.672 2.5937 16.188 3.4007 4.9894 9.2645 8.415 15.125 9.875 4.7202 1.1645 10.242-5.0251 14.406-2.5312 12.32 7.4284 24.043 17.43 31.094 29.969 4.4407 7.8949-0.9985 18.325 1.0313 27.156 0.6945 3.0269 4.1883 4.5814 6.6563 6.4688 1.0808 0.81781 2.0805 1.7615 3.125 2.7188 5.1186 4.6906 10.062 10.371 16.687 10.844 3.6736 0.25946 0.7842-7.4397 2.4688-10.844 0.2113-0.42693 0.4978-0.82786 0.875-1.0938 3.4116-2.3859 8.3591 0.50785 12.531 0.75 4.1722 0.24928 6.2111-2.7188 8.1876-1.1875 0.5664 0.43718 1.0394 0.96983 1.4687 1.5312 2.8398 3.7145 3.1298 9.6846 6.9687 12.469 1.8447 1.3318 4.385-5.7311 5.6563-3.8438 3.5098 5.2075 4.0174 12.255 5.625 18.5l498.94-332.62-583.34-388.91c-0.031 0.0527-0.06 0.10455-0.094 0.15625-1.6523 2.5106-5.892 3.6717-8.6875 2.5312-2.4714-1.0149-0.8942-6.0843-3.1875-7.4375-1.4082-0.8353-3.4976-1.3934-5.3437-1.2812zm-243.35 127.28c3.0056-4.0561-1.752 0.74782 0 0z" fill="#11457e"/>
 <path id="path3809" d="m924.66 594.16-498.94 332.62c1.0154 3.9448 2.4614 7.5609 5.4063 10.219 4.6774 4.217 13.798-5.4835 18.844-1.7188 6.0745 4.5332 3.5013 15.091 7.6563 21.438 1.4777 2.2576 6.6214-0.22884 7.875 2.1562 3.8622 7.3322 0.653 17.797 6 24.125 3.5934 4.2377 11.48 0.24406 16.531 2.5938 4.9276 2.2826 8.1657 7.1679 12.25 10.75 4.0848 3.5824 4.8507 7.3245 11.875 12.688 3.8398 2.9557 10.224 0.4593 14.094 3.3437 3.9876 2.9807 3.976 9.452 7.5624 12.906 1.7272 1.6737 5.9891-0.7885 7.125 1.3125 1.3852 2.5747 0.2699 6.5596-1.7812 8.625-3.148 3.1836-11.63 1.1201-12.25 5.5625-0.5555 3.9994 8.2873 2.4775 10.688 5.7188 1.2855 1.7306-3.024 4.4382-1.7813 6.2187 1.5953 2.2506 6.0361 0.5014 7.9376 2.5313 1.1894 1.2641-2.3692 4.8548-0.6563 5.1875 19.052 3.7166 38.778 2.4487 57.875 5.9375 5.608 1.022 10.776 4.0944 15.406 7.4062 1.4457 1.0398 0.2681 5.8459 1.875 5.0625 3.7979-1.8411 4.2616-7.9164 8-9.875 2.4465-1.282 6.0837 3.2224 8.1562 1.4063 2.4002-2.1118-1.617-7.9245 1.125-9.5625 3.2833-1.9515 8.1688 4.3648 11.281 2.1562 4.6555-3.3118 6.5196-9.8007 7.4063-15.438 0.4665-2.9699-4.6434-5.4368-3.625-8.25 0.844-2.3503 5.1917-3.1701 7.25-1.7812 4.6165 3.1266 5.4522 10.255 9.9687 13.531 4.6678 3.3937 10.688 6.5865 16.375 5.625 5.6789-0.9473 7.8571-10.331 13.594-10.688 3.4435-0.2243 1.3546 7.4702 4.1562 9.5 1.8624 1.3176 4.9576-3.25 6.6563-1.7187 3.18 2.8737 1.2672 9.3691 4.6875 11.969 2.8132 2.1367 7.4994 1.2049 10.594-0.4687 3.009-1.6382 5.2817-5.0545 5.8124-8.4375 0.3025-1.9159-1.1204-27.988 0.5-31.688 1.6168-3.689 1.9964-8.205 4.75-11.125 5.4576-5.7867 15.21-7.345 19.156-14.25 3.1871-5.5766-5.5083-15.969 0-19.281 7.543-4.5226 17.87 0.49196 26.094 3.625 3.5327 1.3354 7.0514 4.4433 15.375 4.9062 3.3508 0.19229 7.3283-3.7151 7.1876-7.0625-0.1661-4.024-7.991-5.167-7.875-9.1875 0.2112-7.2471 7.5693-12.807 8.6874-19.969 0.73-4.6792-3.7991-9.0628-3.4062-13.781 0.3668-4.4371 5.5045-7.6492 5.5625-12.094 0.1211-9.1978-4.1656-18.101-4.8125-27.25-0.05-0.71559-0.1562-1.4058-0.1562-2.125 0-6.5417 1.6976-13.305 4.9062-19 1.2428-2.2187 4.6591-2.4541 7.1875-2.4375 4.3018 0 9.0755 0.1372 12.594 2.5938 1.7096 1.1965-1.8887 5.5778 0.094 6.2188 8.0158 2.6708 18.946-3.4916 25.219 2.1562 3.0667 2.7604 1.6056 7.8073 0.6562 12.594-0.7727 3.8955-1.1988 7.6171 1.3438 9.8125 4.3142 3.7249 9.8424-6.311 15.437-7.3438 4.3554-0.8226 9.8901 4.9539 13.188 2 1.2646-1.1335 1.7218-2.7058 1.9374-4.4688 0.5535-4.529-0.9139-10.319 2.375-13.188 2.6495-2.3111 4.4904 6.2922 7.9376 6.9688 4.0208 0.80125 8.0295-4.2427 11.937-3.0312 5.4347 1.7039 9.7648 5.7952 14.406 9.25 2.2653 1.6862 4.6041 3.2222 7.1875 4.25 3.9201 1.5703 8.5701-1.0761 12.625 0.0625 3.6771 1.047 7.175 3.3931 9.625 6.3125 2.1118 2.5248 1.2154 6.8597 3.4375 9.2812 1.7307 1.8874 4.8142 1.6185 7.25 2.4375 2.4357 0.81193 13.353 0.44909 21.156 4.4375 8.3107 4.2484 13.369 13.546 21.812 17.531 5.5795 2.6352 12.636 3.463 18.469 1.4688 4.0188-1.3853 3.5173-8.5232 7.3438-10.375 5.1615-2.4928 11.716-3.2936 17.125-1.4062 2.3324 0.80836-1.6652 5.9106 0.3124 7.4062 2.8026 2.101 7.6129-1.3423 10.469 0.6875 3.0376 2.158 1.6028 8.0196 4.6562 10.156 2.0015 1.4244 4.9223-3.1752 7.0626-2 2.9057 1.5954 2.1454 6.8488 4.9687 8.5938 1.8766 1.1396 5.1092-3.3074 6.4375-1.5625 1.4672 1.9337-3.7034 4.7783-2.4375 6.8438 3.0945 5.0532 8.5282 8.5087 13.656 11.5 9.4355 5.4662 19.028 11.631 29.75 13.625 21.61 4.0297 43.845 4.8685 65.812 4.1562 2.2862-0.0743 0.3293-6.6841 2.5937-6.375 3.0661 0.41664 2.8881 5.7907 5.4688 7.5 1.4707 0.96149 3.9137 0.72893 5.2812-0.375 6.0757-4.9463 11.925-10.496 16.188-17.062 3.5765-5.5125 4.647-12.322 6.9688-18.469 1.6986-4.4905 3.0382 5.8845 15.562 4.5312 3.0233-0.32406 3.1727-7.6984 6.0937-6.8438 6.5094 1.8731 9.1865 10.748 15.562 13.062 5.6946 2.0298 13.54-4.8239 18.125-0.875 6.2319 5.3701 2.053 17.692 8 23.375 3.0626 2.9272 7.7639-5.4034 11.875-4.4062 7.9766 1.9408 13.144 11.4 21.281 12.469 9.7224 1.2713 19.621-9.4274 28.781-5.9375 6.5391 2.4856 6.3051 12.748 7.4375 19.656 1.1253 6.8907-2.6302 14.218-0.75 20.938 0.7479 2.6708 4.8454 4.0704 7.5625 3.5 2.8453-0.609 5.1576-3.593 5.9375-6.4063 2.4037-8.6463 0.4166-18.202 3.3438-26.688 0.8903-2.596 6.4967-1.2387 7.1875-3.875 0.9259-3.5362-4.8979-6.9564-3.5625-10.375 2.6103-6.6375 10.2-10.173 14.031-16.188 0.8048-1.2713-1.8346-3.3336-0.8125-4.4375 3.7223-3.9813 9.6799-5.304 13.562-9.125 0.7585-0.74783-0.8334-1.9716-1.25-2.9688-0.4167-0.98285-0.2086-11.612 4.9063-17.594 2.5035-2.9236 8.3223 0.75575 11.406-1.5625 5.3646-4.024 5.5176-15.453 12.188-16.094 12.556-1.2072 24.826 5.6436 36.031 11.438 5.4136 2.8026 7.03 10.393 12.25 13.562 2.7136 1.6381 6.8043 1.2362 9.5-0.4375 5.9226-3.6537 7.9545-14.436 14.906-14.625 8.7142-0.23895 13.675 14.618 22.344 13.656 12.662-1.3853 21.859-13.115 32.781-19.656 4.6379-2.7776 7.6676 5.4793 16.562-3.25 6.4925-6.3703 9.1271-16.358 14.594-23.469 1.6201-2.1074 3.4988-3.9718 5.7812-5.4062 8.379-5.2348 22.92 4.7426 29.625-2.5312 8.6826-9.4194 4.9831-25.121 7.4688-37.688 0.3988-2.012 1.2341-4.2841 19.312-6.8125 3.2299-0.42733 6.1672 3.5593 9.3437 2.8125 5.031-1.1858 9.979-4.1038 13.188-8.1562 5.4093-6.8284 10.119-14.749 11.875-23.281 1.1929-5.9007-5.9345-15.077-3.3437-18.938 2.5889-3.8566 7.0148-6.9315 7.8125-11.5 2.1331-12.24-2.0198-25.198 0.7187-37.312 1.0576-4.6721 7.7451-6.1065 10.031-10.312 1.1681-2.1509-2.5402-6.2042-0.375-7.3438 11.127-5.8839 23.682-8.679 35.625-12.75 6.1348-2.0911 12.13-4.5204 17.656-7.875 5.6925-3.4542 8.2841-10.962 9.5625-17.5 0.7977-4.0739-4.9243-9.5959-3.7812-11.875 1.2677-2.5284 4.6492 3.0814 12.844 0.375 3.1017-1.0256 5.1834-4.1911 6.875-6.9688 1.8553-3.059 1.431-7.2674 3.5-10.188 4.0297-5.6799 11.602-8.6893 14.469-15.031 1.3924-3.0803-3.6042-6.2107-3.3438-9.5938 0.2089-2.7029 2.3299-5.1962 4.5938-6.6562 3.5184-2.2933 7.7743-4.5923 11.938-4.0938 3.1693 0.39171 3.8718 6.3608 7.0625 6.375 5.7996 0.028 10.454-6.445 16.25-6.3125 6.7103 0.15313 12.214 8.1933 18.844 7.125 7.0785-1.1431 10.72-9.7013 17.125-12.906 3.3902-1.7093 7.992 0.30363 11.375-1.4062 1.3497-0.67661-4.0867-0.87935-3.875-2.375 0.609-4.3264 6.313-7.3778 5.875-11.719-0.4202-4.1807-6.6638-5.8074-8.0312-9.7812-0.6598-1.9155-1.1613-3.8723-1.5938-5.875z" fill="#d7141a"/>
</svg>
